<?xml version="1.0" encoding="UTF-8"?>
<svg version="1.1" xmlns="http://www.w3.org/2000/svg" width="1600" height="1600">
<path d="M0 0 C1.45100821 -0.00424107 1.45100821 -0.00424107 2.93132973 -0.00856781 C8.06921269 -0.02347212 13.20706831 -0.03275202 18.3449707 -0.03710938 C22.50717104 -0.04145758 26.66915982 -0.05521898 30.83129883 -0.078125 C56.88710141 -0.21857953 82.53678005 0.49782085 108.45703125 3.203125 C110.33356069 3.38532235 112.21024738 3.56591506 114.0871582 3.74414062 C118.23707944 4.14563683 122.37790939 4.59817074 126.51953125 5.078125 C127.57089264 5.19835526 127.57089264 5.19835526 128.64349365 5.3210144 C141.75354449 6.83396531 154.67702876 9.0596245 167.61865234 11.64794922 C171.69889923 12.44602951 175.79511312 13.13695489 179.89453125 13.828125 C185.49756325 14.79114612 190.98211548 16.01985873 196.48046875 17.46484375 C199.70694654 18.26511186 202.94103522 18.89646167 206.20703125 19.515625 C220.2627512 22.27164852 234.38627787 25.55303223 247.89453125 30.34375 C250.64168203 31.26505057 253.38945055 31.96620409 256.20703125 32.640625 C269.57203424 35.87325251 282.54528992 40.51577536 295.45703125 45.203125 C296.67132812 45.64140625 297.885625 46.0796875 299.13671875 46.53125 C321.50387125 54.7593357 343.6451001 63.90858998 365.17822266 74.12255859 C366.83587659 74.90858562 368.49454169 75.69248127 370.15380859 76.47509766 C381.41301727 81.78811354 392.5668763 87.16443881 403.45703125 93.203125 C405.64365657 94.37143022 407.83117562 95.53806405 410.01953125 96.703125 C415.19779757 99.49094464 420.28999992 102.39956233 425.35546875 105.38671875 C428.13043246 107.01185493 430.92188521 108.60417422 433.72167969 110.18603516 C440.43930914 113.98636708 446.9784696 118.00830411 453.45703125 122.203125 C455.3108937 123.37027502 457.16506209 124.53693921 459.01953125 125.703125 C463.39488239 128.48574917 467.64976836 131.40337962 471.87890625 134.40234375 C474.60217876 136.30450834 477.36759879 138.13029901 480.14453125 139.953125 C486.83013553 144.387279 493.26235246 149.13794661 499.70556641 153.91308594 C502.18884105 155.74213852 504.69954738 157.53246608 507.20703125 159.328125 C511.80920096 162.66775258 516.19634418 166.22010806 520.5703125 169.8515625 C523.66849404 172.37538562 526.83401009 174.79164266 530.01953125 177.203125 C534.89333255 180.90701412 539.48063077 184.83165317 543.984375 188.9765625 C548.33125048 192.89081056 552.91486788 196.51954129 557.45703125 200.203125 C559.85720413 202.15326546 562.16915791 204.11861818 564.45703125 206.203125 C564.45703125 206.863125 564.45703125 207.523125 564.45703125 208.203125 C565.029375 208.44675781 565.60171875 208.69039062 566.19140625 208.94140625 C568.86136663 210.42829798 570.59532132 212.18396408 572.70703125 214.390625 C575.39651826 217.19299194 578.14785164 219.82496131 581.09375 222.3515625 C586.30921052 226.87256317 591.15144739 231.75169282 596.01953125 236.640625 C596.92638672 237.54361328 597.83324219 238.44660156 598.76757812 239.37695312 C603.35007703 243.96609815 607.80637881 248.59996779 612.00585938 253.54370117 C613.40256313 255.14084038 614.8638388 256.61032681 616.39453125 258.078125 C618.45703125 260.203125 618.45703125 260.203125 618.45703125 262.203125 C619.11703125 262.203125 619.77703125 262.203125 620.45703125 262.203125 C621.82915426 263.73507772 623.12857585 265.33233581 624.39453125 266.953125 C627.73379748 271.13655774 631.16643286 275.10810763 634.83203125 279.015625 C639.73708167 284.27549431 644.17789753 289.80980842 648.5703125 295.5 C651.10375675 298.77517508 653.71713957 301.97804683 656.34936523 305.17407227 C661.91015362 311.92976767 667.18084291 318.80674173 672.1953125 325.9765625 C674.24244371 328.89699494 676.33764891 331.77247885 678.45703125 334.640625 C682.08779861 339.60904349 685.48709656 344.71337338 688.87353516 349.84936523 C691.10031059 353.21377953 693.37125018 356.50286679 695.83203125 359.703125 C697.92626352 362.427377 699.68163967 365.21408021 701.3359375 368.234375 C702.7504306 370.71836288 704.28801885 373.11007395 705.83203125 375.515625 C711.64041964 384.58659751 717.06135096 393.88228525 722.45703125 403.203125 C722.96484131 404.07904297 722.96484131 404.07904297 723.48291016 404.97265625 C724.539629 406.79785347 725.59259398 408.62516843 726.64453125 410.453125 C727.27746094 411.55140625 727.91039062 412.6496875 728.5625 413.78125 C730.28051533 416.8843045 731.87968198 420.01529743 733.44995117 423.19384766 C734.73193096 425.75159157 736.08917878 428.26454527 737.44946289 430.78125 C743.05105062 441.1690449 748.12976196 451.78984544 753.16113281 462.46289062 C754.36151843 465.00115893 755.57437017 467.53293705 756.79296875 470.0625 C760.00772636 476.76100514 763.06963927 483.38993427 765.46801758 490.43432617 C766.474978 493.25336793 767.59736632 495.99410774 768.765625 498.75 C775.78721864 515.49242059 782.08304288 532.48653187 787.66015625 549.76123047 C788.45874376 552.20837272 789.28148689 554.645992 790.11328125 557.08203125 C790.38172852 557.87158203 790.65017578 558.66113281 790.92675781 559.47460938 C791.42026569 560.92363251 791.91664352 562.37168413 792.41699219 563.81835938 C794.11561635 568.8435574 795.42171191 573.92514378 796.68017578 579.0769043 C797.68771215 583.13143075 798.79685933 587.15473108 799.90527344 591.18261719 C803.82147506 605.43582104 807.27418793 619.76956349 810.45703125 634.203125 C810.82828125 635.87205811 810.82828125 635.87205811 811.20703125 637.57470703 C813.02487734 645.87442653 814.57286302 654.19569511 815.95703125 662.578125 C816.11810867 663.55105499 816.11810867 663.55105499 816.28244019 664.54364014 C818.34691509 677.06236591 820.02488671 689.5977989 821.45703125 702.203125 C821.62230777 703.63528287 821.78785147 705.06740993 821.95361328 706.49951172 C822.41140538 710.46020202 822.86370355 714.42148916 823.31222534 718.38323975 C823.48878816 719.94228881 823.66610605 721.50125259 823.8442688 723.06011963 C824.09645943 725.27536214 824.34376515 727.49110232 824.58984375 729.70703125 C824.73309082 730.98392822 824.87633789 732.2608252 825.02392578 733.57641602 C826.34981823 747.0634573 826.63329197 760.46079952 826.66015625 774 C826.66298363 774.97961952 826.665811 775.95923904 826.66872406 776.96854401 C826.68362819 782.17011268 826.6929086 787.37165433 826.69726562 792.57324219 C826.70161692 796.79077972 826.71539061 801.00810884 826.73828125 805.22558594 C826.87571492 831.07173897 826.25051592 856.4987588 823.45703125 882.203125 C823.30495919 883.65635666 823.15369255 885.10967279 823.00315857 886.56306458 C818.29822234 931.94469706 810.94235645 979.02722062 796.09570312 1022.28125 C795.27649203 1024.74639897 794.66292305 1027.23459645 794.08203125 1029.765625 C787.36609454 1057.25572862 776.37798831 1084.05026541 765.24609375 1109.984375 C763.98125672 1112.9322084 762.78596443 1115.89957543 761.6171875 1118.88671875 C759.06982519 1125.28705866 756.17461944 1131.52132081 753.26953125 1137.765625 C752.98490021 1138.3788562 752.70026917 1138.9920874 752.40701294 1139.62390137 C748.30549254 1148.44760569 744.02727692 1157.1475314 739.359375 1165.6875 C737.64298359 1168.85947591 736.01695294 1172.05803555 734.41479492 1175.28808594 C730.35709682 1183.40141347 725.87989055 1191.29017231 721.2734375 1199.1015625 C719.64830132 1201.87652621 718.05598203 1204.66797896 716.47412109 1207.46777344 C712.67378917 1214.18540289 708.65185214 1220.72456335 704.45703125 1227.203125 C703.28988123 1229.05698745 702.12321704 1230.91115584 700.95703125 1232.765625 C698.17440708 1237.14097614 695.25677663 1241.39586211 692.2578125 1245.625 C690.35564791 1248.34827251 688.52985724 1251.11369254 686.70703125 1253.890625 C682.27287725 1260.57622928 677.52220964 1267.00844621 672.74707031 1273.45166016 C670.91801773 1275.9349348 669.12769017 1278.44564113 667.33203125 1280.953125 C663.99240367 1285.55529471 660.44004819 1289.94243793 656.80859375 1294.31640625 C654.28477063 1297.41458779 651.86851359 1300.58010384 649.45703125 1303.765625 C645.75314213 1308.6394263 641.82850308 1313.22672452 637.68359375 1317.73046875 C633.76934569 1322.07734423 630.14061496 1326.66096163 626.45703125 1331.203125 C624.50689079 1333.60329788 622.54153807 1335.91525166 620.45703125 1338.203125 C619.79703125 1338.203125 619.13703125 1338.203125 618.45703125 1338.203125 C618.21339844 1338.77546875 617.96976563 1339.3478125 617.71875 1339.9375 C616.23185827 1342.60746038 614.47619217 1344.34141507 612.26953125 1346.453125 C609.45671297 1349.15264237 606.81512046 1351.91561884 604.27734375 1354.87109375 C599.91973996 1359.89805839 595.23244157 1364.57392808 590.51953125 1369.265625 C589.66423828 1370.12478516 588.80894531 1370.98394531 587.92773438 1371.86914062 C583.53518813 1376.2549858 579.07981514 1380.48973951 574.37133789 1384.53393555 C571.03257828 1387.44518404 567.85290239 1390.52490825 564.64453125 1393.578125 C559.23924889 1398.68736497 553.76201967 1403.54730581 547.94140625 1408.1796875 C545.47815394 1410.1859213 543.15849208 1412.2906094 540.83203125 1414.453125 C535.02687402 1419.74824445 528.75986778 1424.40559979 522.49609375 1429.13671875 C519.39515238 1431.47988985 516.34606939 1433.87354879 513.33203125 1436.328125 C496.21195192 1450.12812149 477.84725001 1462.65818522 459.28125 1474.4140625 C457.40586523 1475.60206557 455.5334337 1476.79474413 453.6640625 1477.9921875 C443.75456293 1484.33762164 433.63986966 1490.30844791 423.45703125 1496.203125 C422.87308594 1496.54166504 422.28914063 1496.88020508 421.6875 1497.22900391 C419.86230278 1498.28572275 418.03498782 1499.33868773 416.20703125 1500.390625 C415.10875 1501.02355469 414.01046875 1501.65648437 412.87890625 1502.30859375 C409.77585175 1504.02660908 406.64485882 1505.62577573 403.46630859 1507.19604492 C400.90791568 1508.47835 398.39434045 1509.83598558 395.87695312 1511.1965332 C381.72332565 1518.82938231 367.180781 1525.74289587 352.45703125 1532.203125 C351.18690186 1532.76471313 351.18690186 1532.76471313 349.89111328 1533.33764648 C331.45385981 1541.48051775 312.90212578 1548.80089948 293.8515625 1555.37109375 C291.59036762 1556.15679442 289.33516123 1556.95712481 287.08203125 1557.765625 C257.03940221 1568.54364017 225.98625363 1577.71136218 194.6015625 1583.59375 C191.44226247 1584.20598702 188.33302676 1584.94011738 185.20703125 1585.703125 C178.42281356 1587.29214686 171.59620505 1588.35786853 164.7109375 1589.39453125 C161.2304321 1589.91995183 157.76283004 1590.49153669 154.296875 1591.10546875 C139.91030922 1593.60947577 125.46907563 1595.30804916 110.95703125 1596.890625 C109.97197601 1596.99912781 108.98692078 1597.10763062 107.97201538 1597.21942139 C105.08216471 1597.53588745 102.19166 1597.845423 99.30078125 1598.15234375 C98.46162674 1598.24385208 97.62247223 1598.33536041 96.75788879 1598.42964172 C81.3884355 1600.02667747 66.05263796 1600.37517711 50.61328125 1600.40625 C49.64403214 1600.40907738 48.67478302 1600.41190475 47.67616272 1600.41481781 C42.53524519 1600.42969525 37.39435483 1600.43899385 32.25341797 1600.44335938 C28.08438244 1600.44771953 23.91555671 1600.4615322 19.74658203 1600.484375 C-5.21691905 1600.61828241 -29.73560007 1600.08806597 -54.54296875 1597.203125 C-56.55710493 1596.98443858 -58.57141665 1596.76736009 -60.5859375 1596.55224609 C-65.66071923 1596.0008622 -70.7273401 1595.39504426 -75.79296875 1594.765625 C-76.65209869 1594.66051605 -77.51122864 1594.5554071 -78.39639282 1594.44711304 C-90.55542457 1592.9533528 -102.55694339 1591.11139706 -114.54980469 1588.59228516 C-117.63382424 1587.99013827 -120.73940736 1587.60040555 -123.85546875 1587.203125 C-129.53351397 1586.44470998 -135.00443264 1585.17465961 -140.53710938 1583.7277832 C-144.79001501 1582.62038263 -149.03140282 1581.69211091 -153.35546875 1580.890625 C-169.9305997 1577.68139752 -186.38731925 1573.09358663 -202.54296875 1568.203125 C-203.18379395 1568.00960449 -203.82461914 1567.81608398 -204.48486328 1567.61669922 C-226.10171751 1561.04642605 -247.51909882 1553.72374161 -268.3984375 1545.08496094 C-271.1027395 1543.97294604 -273.82026937 1542.89627065 -276.53955078 1541.8215332 C-288.62956378 1537.03675421 -300.51731252 1531.85566234 -312.26416016 1526.28369141 C-313.92181409 1525.49766438 -315.58047919 1524.71376873 -317.23974609 1523.93115234 C-328.49357375 1518.62067567 -339.69127197 1513.30294954 -350.54296875 1507.203125 C-351.8828058 1506.45311302 -353.22265 1505.70311383 -354.5625 1504.953125 C-357.3375105 1503.39697536 -360.10934025 1501.83534815 -362.87890625 1500.26953125 C-365.71544871 1498.66667566 -368.56251748 1497.08460971 -371.41796875 1495.515625 C-376.19963859 1492.86619883 -380.86621286 1490.03227362 -385.54296875 1487.203125 C-386.35765625 1486.7184375 -387.17234375 1486.23375 -388.01171875 1485.734375 C-398.16610409 1479.6931584 -408.03939765 1473.24936951 -417.8515625 1466.671875 C-420.1073066 1465.15990422 -422.36961081 1463.66106463 -424.640625 1462.171875 C-432.82291356 1456.7977743 -440.69203351 1451.04463301 -448.54296875 1445.203125 C-450.09177734 1444.05650391 -450.09177734 1444.05650391 -451.671875 1442.88671875 C-471.4738851 1428.14727315 -490.63879015 1412.5439412 -508.7578125 1395.7734375 C-511.2700287 1393.45501077 -513.8055997 1391.16744382 -516.35546875 1388.890625 C-526.13521752 1380.09353041 -535.72309579 1371.11200968 -545.04296875 1361.828125 C-546.01194092 1360.86604126 -546.01194092 1360.86604126 -547.00048828 1359.88452148 C-550.75644251 1356.11641363 -554.31119597 1352.22920332 -557.78808594 1348.203125 C-560.73639985 1344.84299873 -563.83677287 1341.62839708 -566.91796875 1338.390625 C-572.02720872 1332.98534264 -576.88714956 1327.50811342 -581.51953125 1321.6875 C-583.52576505 1319.22424769 -585.63045315 1316.90458583 -587.79296875 1314.578125 C-593.09126972 1308.7694798 -597.75123397 1302.4986264 -602.484375 1296.23046875 C-604.77995844 1293.19225813 -607.12857996 1290.21087306 -609.54296875 1287.265625 C-614.97145271 1280.54300879 -619.92568149 1273.45907739 -624.94873047 1266.43212891 C-626.42552774 1264.36732659 -627.90709298 1262.30605997 -629.390625 1260.24609375 C-633.8978072 1253.9786708 -638.34642174 1247.68445872 -642.54296875 1241.203125 C-643.3009375 1240.03523438 -643.3009375 1240.03523438 -644.07421875 1238.84375 C-648.37181468 1232.15409596 -652.51439963 1225.37178509 -656.63549805 1218.57250977 C-659.18144448 1214.38271669 -661.81889217 1210.28041456 -664.54296875 1206.203125 C-665.31378895 1204.88171893 -666.06575142 1203.54901977 -666.79296875 1202.203125 C-669.63814556 1196.99724421 -672.60770466 1191.86547262 -675.578125 1186.73046875 C-677.34867868 1183.61008266 -678.95266098 1180.42231698 -680.5402832 1177.20581055 C-681.820318 1174.64916933 -683.17706063 1172.13815595 -684.53637695 1169.62304688 C-691.82790783 1156.10232737 -698.52145791 1142.23264932 -704.66113281 1128.15136719 C-705.53808988 1126.2139039 -706.4899912 1124.33469052 -707.48046875 1122.453125 C-709.67593274 1118.11305718 -711.35587436 1113.61558156 -713.06640625 1109.06640625 C-714.44928457 1105.40918354 -715.91917927 1101.78992913 -717.39208984 1098.16821289 C-721.4904778 1088.07049501 -725.19614037 1077.87810384 -728.72705078 1067.56982422 C-729.75182338 1064.59730909 -730.80427208 1061.63510935 -731.85961914 1058.67333984 C-741.14489455 1032.58946633 -741.14489455 1032.58946633 -743.7734375 1021.4296875 C-744.75477846 1017.31502946 -745.8357105 1013.22970401 -746.91796875 1009.140625 C-747.24015381 1007.91472656 -747.24015381 1007.91472656 -747.56884766 1006.6640625 C-748.61574243 1002.68477428 -749.67470666 998.70964354 -750.765625 994.7421875 C-759.39975042 963.11387634 -764.84487151 930.75271769 -768.54296875 898.203125 C-768.70824527 896.77096713 -768.87378897 895.33884007 -769.03955078 893.90673828 C-769.49734288 889.94604798 -769.94964105 885.98476084 -770.39816284 882.02301025 C-770.57472566 880.46396119 -770.75204355 878.90499741 -770.9302063 877.34613037 C-771.18239693 875.13088786 -771.42970265 872.91514768 -771.67578125 870.69921875 C-771.81902832 869.42232178 -771.96227539 868.1454248 -772.10986328 866.82983398 C-773.43575573 853.3427927 -773.71922947 839.94545048 -773.74609375 826.40625 C-773.74892113 825.42663048 -773.7517485 824.44701096 -773.75466156 823.43770599 C-773.76956569 818.23613732 -773.7788461 813.03459567 -773.78320312 807.83300781 C-773.78755442 803.61547028 -773.80132811 799.39814116 -773.82421875 795.18066406 C-773.96152856 769.34084259 -773.37200053 743.89677235 -770.54296875 718.203125 C-770.32575393 716.13479241 -770.1087729 714.06643524 -769.89208984 711.99804688 C-769.34741725 706.93466623 -768.74039063 701.88089039 -768.10546875 696.828125 C-768.00002747 695.97299316 -767.89458618 695.11786133 -767.78594971 694.23681641 C-766.29137594 682.15504981 -764.51058486 670.2017629 -761.97070312 658.29003906 C-761.41389365 655.57336816 -760.95760473 652.8447897 -760.50512695 650.10913086 C-756.54687046 626.26500649 -751.49039005 601.57126375 -743.40234375 578.765625 C-742.48104318 576.01847422 -741.77988966 573.2707057 -741.10546875 570.453125 C-737.87254674 557.08690443 -733.22356935 544.11832364 -728.54296875 531.203125 C-728.26163086 530.42501465 -727.98029297 529.6469043 -727.69042969 528.84521484 C-722.82365806 515.41673157 -717.9217584 501.98375415 -711.81640625 489.05859375 C-710.73412167 486.63175318 -709.74919952 484.20004387 -708.78125 481.7265625 C-706.21018739 475.25513554 -703.29212494 468.95278262 -700.35546875 462.640625 C-700.07083771 462.0273938 -699.78620667 461.4141626 -699.49295044 460.78234863 C-695.39143004 451.95864431 -691.11321442 443.2587186 -686.4453125 434.71875 C-684.72892109 431.54677409 -683.10289044 428.34821445 -681.50073242 425.11816406 C-677.46600135 417.05075887 -673.01272549 409.21072969 -668.4296875 401.4453125 C-666.6321718 398.35641389 -664.88643565 395.24397342 -663.15087891 392.12011719 C-658.49912717 383.75589108 -653.54420107 375.77924492 -647.81640625 368.1015625 C-646.7220972 366.47016925 -645.73591246 364.76717054 -644.7734375 363.0546875 C-642.25532195 358.601636 -639.38141896 354.41330797 -636.48046875 350.203125 C-635.91046143 349.37296875 -635.3404541 348.5428125 -634.75317383 347.6875 C-629.88328808 340.62863545 -624.85014375 333.70195338 -619.73486328 326.81982422 C-618.01667591 324.48925544 -616.34691307 322.12455929 -614.66796875 319.765625 C-610.21242611 313.61973216 -605.38129881 307.78594595 -600.5703125 301.91796875 C-598.34191931 299.19633438 -596.16809106 296.44409058 -594.04296875 293.640625 C-586.63295809 284.01867086 -578.36053816 275.00073255 -570.15234375 266.05859375 C-568.48185108 264.28774078 -568.48185108 264.28774078 -567.54296875 262.203125 C-566.88296875 262.203125 -566.22296875 262.203125 -565.54296875 262.203125 C-565.28902344 261.62046875 -565.03507813 261.0378125 -564.7734375 260.4375 C-563.40976542 257.96124467 -561.90071672 256.39791874 -559.85546875 254.453125 C-557.24656659 251.96447284 -554.83001226 249.39703899 -552.48828125 246.66015625 C-548.09720667 241.59963528 -543.37230688 236.88221127 -538.62768555 232.1574707 C-537.10805207 230.6431992 -535.59384358 229.1236507 -534.08007812 227.60351562 C-529.23533848 222.75585841 -524.3476324 218.00814995 -519.1184082 213.5703125 C-517.73762344 212.37204895 -516.44382162 211.07505295 -515.16796875 209.765625 C-513.54296875 208.203125 -513.54296875 208.203125 -511.54296875 208.203125 C-511.54296875 207.543125 -511.54296875 206.883125 -511.54296875 206.203125 C-510.01101603 204.83100199 -508.41375794 203.5315804 -506.79296875 202.265625 C-502.60953601 198.92635877 -498.63798612 195.49372339 -494.73046875 191.828125 C-489.47059944 186.92307458 -483.93628533 182.48225872 -478.24609375 178.08984375 C-474.97091867 175.5563995 -471.76804692 172.94301668 -468.57202148 170.31079102 C-461.8112489 164.74582347 -454.92840614 159.47231405 -447.75390625 154.453125 C-444.92371119 152.46992262 -442.13528168 150.44340994 -439.35546875 148.390625 C-427.71607706 139.90680173 -415.76130131 131.82751894 -403.54296875 124.203125 C-401.68818477 123.01658943 -399.83403003 121.82906972 -397.98046875 120.640625 C-388.98026912 114.91670201 -379.77293393 109.5461995 -370.54296875 104.203125 C-369.95902344 103.86458496 -369.37507813 103.52604492 -368.7734375 103.17724609 C-366.94824028 102.12052725 -365.12092532 101.06756227 -363.29296875 100.015625 C-362.1946875 99.38269531 -361.09640625 98.74976562 -359.96484375 98.09765625 C-356.86178925 96.37964092 -353.73079632 94.78047427 -350.55224609 93.21020508 C-347.99450218 91.92822529 -345.48154848 90.57097747 -342.96484375 89.21069336 C-332.57704885 83.60910563 -321.95624831 78.53039429 -311.28320312 73.49902344 C-308.74493482 72.29863782 -306.2131567 71.08578608 -303.68359375 69.8671875 C-296.92670669 66.62441114 -290.23798256 63.56572025 -283.140625 61.125 C-280.2680766 60.10556929 -277.47569598 58.95167926 -274.66796875 57.765625 C-263.50743427 53.06645259 -252.15539288 48.96083303 -240.72802734 44.96923828 C-238.58729935 44.21866795 -236.44945169 43.4604675 -234.3125 42.69921875 C-226.97004018 40.08500653 -219.61308972 37.51433416 -212.23046875 35.015625 C-211.53832275 34.77779297 -210.84617676 34.53996094 -210.13305664 34.29492188 C-205.03486305 32.5845447 -199.88302274 31.25349114 -194.66040039 29.9777832 C-190.60881062 28.97099377 -186.5884418 27.86249314 -182.56347656 26.75488281 C-168.31027271 22.83868119 -153.97653026 19.38596832 -139.54296875 16.203125 C-138.43034668 15.955625 -137.31772461 15.708125 -136.17138672 15.453125 C-127.87166722 13.63527891 -119.55039864 12.08729323 -111.16796875 10.703125 C-110.51934875 10.59574005 -109.87072876 10.4883551 -109.20245361 10.37771606 C-96.68372784 8.31324116 -84.14829485 6.63526954 -71.54296875 5.203125 C-70.11081088 5.03784848 -68.67868382 4.87230478 -67.24658203 4.70654297 C-63.28589173 4.24875087 -59.32460459 3.7964527 -55.362854 3.34793091 C-53.80380494 3.17136809 -52.24484116 2.9940502 -50.68597412 2.81588745 C-48.47073161 2.56369682 -46.25499143 2.3163911 -44.0390625 2.0703125 C-42.76216553 1.92706543 -41.48526855 1.78381836 -40.16967773 1.63623047 C-26.76744143 0.31806257 -13.45402717 0.02705457 0 0 Z " fill="#1ED760" transform="translate(773.54296875,-0.203125)"/>
<path d="M0 0 C42.9790692 -0.48933484 86.2134907 0.02666378 129.00183105 4.3560791 C133.96352921 4.84746059 138.89928046 5.15598682 143.87889099 5.34846497 C156.99434191 5.85607061 169.92563839 7.31199603 182.94714355 8.91467285 C185.10526578 9.17446037 187.26346893 9.43357655 189.42175293 9.6920166 C195.82763141 10.46187146 202.23136337 11.24853187 208.63464355 12.03967285 C209.71857391 12.1732016 210.80250427 12.30673035 211.91928101 12.44430542 C215.13187899 12.84049865 218.3442461 13.23850577 221.55651855 13.6373291 C222.98723442 13.8141774 222.98723442 13.8141774 224.44685364 13.99459839 C247.98435787 16.93259289 247.98435787 16.93259289 257.18933105 19.07092285 C261.38698751 20.03302808 265.54124269 20.5558682 269.82214355 20.97717285 C276.39332316 21.68241491 282.72212099 22.84379139 289.1697998 24.32092285 C292.83752628 25.08175901 296.47981517 25.58309209 300.19714355 26.03967285 C305.82133224 26.74628696 311.20710812 27.78989313 316.7088623 29.13342285 C321.88025462 30.36424472 327.10599033 31.3324647 332.32214355 32.35217285 C349.55082498 35.75480822 366.69822029 39.51031134 383.5826416 44.35827637 C387.82579648 45.56885663 392.05678513 46.59935251 396.38464355 47.47717285 C402.64143487 48.75780265 408.78567021 50.36108602 414.94714355 52.03967285 C416.3262793 52.41370239 416.3262793 52.41370239 417.73327637 52.79528809 C421.94608671 53.95582827 426.10902002 55.17648481 430.2401123 56.60217285 C433.12091652 57.58549836 435.95244371 58.37297394 438.93151855 58.9967041 C444.692083 60.20991389 450.26841039 61.97609919 455.88464355 63.72717285 C457.58197632 64.2534729 457.58197632 64.2534729 459.31359863 64.79040527 C466.66981197 67.08357929 474.00726797 69.43035593 481.32214355 71.85217285 C482.1635791 72.12956299 483.00501465 72.40695312 483.87194824 72.69274902 C487.46006563 73.89499471 490.98155351 75.14719076 494.4510498 76.6607666 C496.9550744 77.74533185 499.26313675 78.58927027 501.88464355 79.28967285 C507.05603669 80.78874233 512.086256 82.61330423 517.13464355 84.47717285 C517.91742676 84.76560059 518.70020996 85.05402832 519.50671387 85.35119629 C524.41522018 87.17528956 529.2860961 89.08144106 534.14343262 91.03747559 C536.56662717 92.01231032 538.99427847 92.97502309 541.42370605 93.9342041 C551.27172661 97.83414108 561.03073556 101.87931526 570.70788574 106.18518066 C573.30821638 107.33839369 575.9157221 108.47484877 578.52355957 109.61096191 C580.52165216 110.48241028 582.51775151 111.35829686 584.5135498 112.23498535 C587.3287662 113.47106552 590.14986494 114.69244263 592.9744873 115.90686035 C602.62206352 120.0857117 611.93232506 124.71268913 621.19714355 129.68029785 C624.88707678 131.65682405 628.61877484 133.52355391 632.38464355 135.35217285 C641.78450787 140.01353581 650.85850964 145.27149667 659.94958496 150.50305176 C662.28648309 151.84042554 664.63449794 153.15367063 666.9901123 154.4576416 C679.6194787 161.56235635 690.0352188 170.57221078 697.63464355 183.03967285 C698.33589355 184.09154785 699.03714355 185.14342285 699.75964355 186.22717285 C708.61153392 202.20655935 710.98665248 224.43762578 706.14953613 241.95202637 C701.71838495 255.54303148 694.13628647 267.32565315 683.63464355 277.03967285 C683.08679199 277.56947754 682.53894043 278.09928223 681.9744873 278.6451416 C668.91685778 290.79115018 651.33450044 297.26431461 633.50964355 297.53967285 C631.21482241 297.42430479 628.9216198 297.26160427 626.63464355 297.03967285 C625.63819824 296.95459473 624.64175293 296.8695166 623.6151123 296.78186035 C610.6823125 295.15443976 598.98925667 289.77765514 588.2088623 282.6763916 C585.6722076 280.91766393 585.6722076 280.91766393 582.63464355 280.03967285 C582.63464355 279.37967285 582.63464355 278.71967285 582.63464355 278.03967285 C581.9591748 277.95846191 581.28370605 277.87725098 580.58776855 277.7935791 C576.79134922 276.82438739 573.72026546 274.96108072 570.38464355 272.97717285 C564.05898252 269.31475555 557.64439352 266.05572795 551.00842285 262.99719238 C546.0263955 260.70025768 541.0985441 258.31651231 536.19714355 255.85217285 C535.52771729 255.5165332 534.85829102 255.18089355 534.1685791 254.83508301 C531.39319704 253.44028983 528.62515356 252.0347402 525.86901855 250.60217285 C520.36945638 247.76368915 514.77426697 245.5188545 508.97839355 243.35217285 C505.68608949 242.05986658 502.51596997 240.62003095 499.32214355 239.10217285 C492.56665707 235.92741899 485.66279975 233.33492747 478.65661621 230.78088379 C476.07519975 229.83459299 473.50362828 228.86327554 470.93200684 227.89074707 C448.47441189 219.40629303 448.47441189 219.40629303 425.63464355 212.03967285 C422.96517314 211.21525718 420.29991842 210.37753962 417.63464355 209.53967285 C415.73710814 208.94468293 413.83950372 208.34990492 411.9407959 207.75866699 C410.21096417 207.21935358 408.48231715 206.67623781 406.75427246 206.13122559 C398.55965954 203.57048706 390.31152793 201.2874714 382.00964355 199.10217285 C380.67301123 198.74890422 379.33642325 198.39546776 377.99987793 198.04187012 C375.37941586 197.34888251 372.7585987 196.65728979 370.13757324 195.96643066 C367.2616312 195.20555277 364.38853999 194.43579996 361.51745605 193.65686035 C337.08097964 187.051179 312.39772936 181.90419106 287.54328918 177.18240356 C282.30227472 176.18133274 277.09194727 175.07579745 271.88464355 173.91467285 C262.01151986 171.741064 252.0019661 170.30089525 242.01062012 168.78918457 C236.22950668 167.91387762 230.45897421 167.03118438 224.71276855 165.94592285 C220.89849965 165.23604503 217.12429008 164.70841834 213.25985718 164.37207031 C205.24230299 163.67199838 197.2721523 162.75278633 189.29629517 161.67733765 C172.17722294 159.37388873 155.03844498 157.62568514 137.83447266 156.10021973 C135.07262937 155.85323486 132.31155645 155.59815547 129.55042171 155.34339237 C121.24750965 154.57883773 112.9410335 153.86877864 104.62977219 153.20122147 C102.70980413 153.04575872 100.79026944 152.88497183 98.87075806 152.72396851 C71.79688079 150.51190639 44.69329081 150.76973615 17.54815674 150.84405518 C12.59427914 150.85484794 7.64042887 150.85447001 2.68654156 150.85407448 C-34.35173355 150.85459186 -71.15729503 150.97461482 -108.05285645 154.53967285 C-112.86885447 154.99202727 -117.68543774 155.43793678 -122.5020752 155.88342285 C-123.63965775 155.99024887 -124.7772403 156.09707489 -125.94929504 156.20713806 C-132.12509353 156.7784279 -138.28800426 157.24359995 -144.48254395 157.5435791 C-153.01577558 157.99399514 -161.36513143 159.18870335 -169.80285645 160.47717285 C-172.9011839 160.93981903 -176.00031253 161.39690112 -179.09973145 161.85217285 C-180.20993904 162.01591652 -180.20993904 162.01591652 -181.34257507 162.18296814 C-186.40479511 162.92175727 -191.45951772 163.51309894 -196.55285645 163.97717285 C-208.44111127 165.19169004 -220.15852057 167.72179467 -231.88188171 169.99082947 C-236.61734592 170.90473387 -241.35898049 171.74296795 -246.11535645 172.53967285 C-253.69549927 173.85795856 -261.21531999 175.43843548 -268.74035645 177.03967285 C-269.9182373 177.28910645 -271.09611816 177.53854004 -272.30969238 177.79553223 C-278.57982829 179.14635031 -284.77588569 180.62916455 -290.94372559 182.39123535 C-293.42496612 183.05563447 -295.90341166 183.56834978 -298.42785645 184.03967285 C-302.64140439 184.84256939 -306.6608204 185.98341431 -310.7520752 187.2623291 C-313.50133312 188.08012032 -316.26201837 188.75338993 -319.05285645 189.41467285 C-325.17659082 190.90594495 -331.06874959 192.88943073 -337.0177002 194.95373535 C-354.65854243 200.67620226 -373.34482914 197.29226747 -389.74035645 189.66467285 C-407.30643793 180.17663887 -421.28919111 165.2855733 -427.36535645 146.03967285 C-427.73531738 144.94525879 -428.10527832 143.85084473 -428.4864502 142.7232666 C-434.22225795 124.00746484 -432.2605778 104.70426113 -423.36535645 87.28967285 C-411.05591926 64.61875656 -390.36573191 53.15527713 -366.36535645 46.03967285 C-363.33719531 45.21865733 -360.30636929 44.45949442 -357.2520752 43.74279785 C-354.11148551 42.9778369 -351.02773747 42.0804642 -347.92785645 41.16467285 C-338.48856932 38.44574776 -328.93423797 36.25031506 -319.36535645 34.03967285 C-317.50910645 33.60703125 -317.50910645 33.60703125 -315.61535645 33.16564941 C-312.23089993 32.37698978 -308.84478318 31.59578845 -305.45761108 30.81887817 C-303.48866046 30.36615363 -301.52085985 29.90843658 -299.55310059 29.45056152 C-292.23413425 27.78412849 -284.96402872 26.48420777 -277.52478027 25.48913574 C-273.35636118 24.89613214 -269.2813399 24.03325024 -265.17785645 23.10217285 C-257.2952501 21.38250517 -249.40324575 20.02678746 -241.42785645 18.82092285 C-236.84349194 18.12566378 -232.27598768 17.34629518 -227.70666504 16.55895996 C-214.63346549 14.31756907 -201.53943055 12.56655309 -188.36535645 11.03967285 C-187.37922363 10.92269043 -186.39309082 10.80570801 -185.3770752 10.68518066 C-135.91780782 4.83153845 -86.47850583 1.19521486 -36.67785645 0.47717285 C-35.98314365 0.46697994 -35.28843086 0.45678703 -34.57266617 0.44628525 C-23.04865744 0.27724295 -11.52443908 0.13585704 0 0 Z " fill="#FEFEFE" transform="translate(678.3653564453125,422.9603271484375)"/>
<path d="M0 0 C6.13319046 0.01136189 12.26620674 0.00463542 18.39939117 -0.00687408 C52.65491356 -0.06153346 86.74558659 0.4147028 120.8190918 4.26074219 C122.36847337 4.42831366 123.91795411 4.59497067 125.4675293 4.76074219 C128.51156138 5.08766159 131.55494991 5.41975865 134.59790039 5.7565918 C140.28268639 6.383878 145.97099171 6.9772691 151.65957642 7.56896973 C162.71890366 8.72423892 173.68642621 10.11473255 184.61938477 12.1550293 C190.04309694 13.1352555 195.45845178 13.74547411 200.9440918 14.26074219 C207.46712237 14.87737957 213.62490973 15.93325819 219.98706055 17.54980469 C223.55247211 18.34018825 227.06311037 18.74892407 230.6940918 19.13574219 C238.06956467 19.93652326 245.12933506 21.57482427 252.3203125 23.36914062 C257.98221757 24.77077139 263.62656727 25.93993216 269.3815918 26.88574219 C274.5948124 27.74545161 279.54406804 28.87033676 284.56518555 30.51855469 C287.94244661 31.47201621 291.36510734 32.0427252 294.8190918 32.63574219 C301.12873403 33.73756746 307.09642536 35.35236332 313.17724609 37.34960938 C317.95304078 38.90852628 322.74814177 40.20899344 327.6315918 41.38574219 C332.52603016 42.56671526 337.29466819 43.89249672 342.0456543 45.56152344 C344.44889392 46.3436687 346.85946015 46.92931064 349.3190918 47.51074219 C364.82065445 51.28727084 380.01897872 56.43392433 395.1184082 61.56103516 C397.20655928 62.26494494 399.29891057 62.95457349 401.39331055 63.63964844 C402.06620117 63.86056152 402.7390918 64.08147461 403.43237305 64.30908203 C405.24182063 64.90241041 407.05191403 65.4937683 408.86206055 66.08496094 C411.12351555 66.88296557 413.35686929 67.76447739 415.55737305 68.71777344 C418.97255293 70.16674879 422.37767018 71.34559769 425.90014648 72.49267578 C429.5887777 73.72771557 433.20058679 75.14795327 436.8190918 76.57324219 C437.59833008 76.87883057 438.37756836 77.18441895 439.18041992 77.49926758 C440.76780072 78.12267354 442.35472176 78.74725153 443.94116211 79.37304688 C445.97943759 80.17616452 448.01999536 80.9731248 450.0612793 81.76855469 C458.42089202 85.05846679 466.6243519 88.63009411 474.8190918 92.30761719 C478.78126367 94.08364335 482.76297509 95.80656954 486.7565918 97.51074219 C487.88452148 97.99285156 489.01245117 98.47496094 490.17456055 98.97167969 C491.94731752 99.72848409 493.72054382 100.48419381 495.49487305 101.23730469 C507.41475135 106.40034049 518.90697784 112.58056552 530.37133789 118.67138672 C534.2430305 120.72515473 538.12925673 122.73092214 542.0612793 124.66699219 C547.6352647 127.43997719 553.0382848 130.48791022 558.4440918 133.57324219 C559.45334717 134.14792236 560.46260254 134.72260254 561.50244141 135.31469727 C563.50079313 136.45260975 565.49877186 137.59117757 567.49633789 138.73046875 C569.75873392 140.01378986 572.02835051 141.28074628 574.30737305 142.53417969 C592.3716359 152.55851581 609.56601543 164.31319984 615.77612305 185.22021484 C620.39731648 203.25962549 619.19506716 220.4251688 609.8034668 236.58032227 C601.01267166 251.03970104 587.55316459 260.84638129 571.35644531 265.82568359 C555.41061069 269.03393439 538.21544682 267.50754579 524.1940918 259.26074219 C523.52522949 258.86999512 522.85636719 258.47924805 522.16723633 258.07666016 C518.07172085 255.64261534 514.07231465 253.07671222 510.08325195 250.47314453 C501.74200784 245.12000182 492.97491036 240.51524647 484.04956055 236.22509766 C480.37275779 234.43754976 476.88219921 232.48545636 473.40112305 230.33886719 C468.16102135 227.15284539 462.73532415 224.61153753 457.1315918 222.13574219 C456.20282227 221.719375 455.27405273 221.30300781 454.31713867 220.87402344 C450.78876071 219.29430053 447.2551386 217.72692963 443.71582031 216.171875 C439.49708565 214.31335493 435.35494969 212.37602368 431.2565918 210.26074219 C426.92500583 208.07862413 422.59673975 206.12843562 418.07299805 204.38574219 C415.07850672 203.21557461 412.11496517 201.98316864 409.14892578 200.74316406 C402.18160161 197.83619059 395.18888991 195.1276586 388.05737305 192.64355469 C384.14022285 191.26275662 380.27116504 189.76333185 376.3972168 188.26635742 C368.97271741 185.39893292 361.58671012 182.62088428 353.9440918 180.38183594 C348.58374418 178.77931535 343.26816219 177.04185353 337.9440918 175.32324219 C329.82439756 172.71060371 321.69389713 170.16395391 313.49584961 167.80786133 C310.68498071 166.99979139 307.90313518 166.1611555 305.13549805 165.21386719 C302.04746833 164.21323073 299.00035249 163.52803948 295.8190918 162.88574219 C290.8292008 161.84315582 285.88390195 160.70669277 280.9440918 159.44824219 C270.55748478 156.80808193 260.11057242 154.42986075 249.66137695 152.05175781 C247.36346576 151.52751952 245.06625249 151.00021179 242.76977539 150.46972656 C228.72826899 147.22643837 214.71035671 144.35352534 200.47143555 142.12011719 C196.96204966 141.56850466 193.48854743 140.92896417 190.01049805 140.20605469 C185.74470246 139.33334348 181.52564448 138.79163086 177.1940918 138.38574219 C164.08346304 137.04690013 151.03769155 134.96358851 138.05395508 132.7175293 C134.63252359 132.1710466 131.28161681 132.02859685 127.8190918 131.88574219 C117.83204957 131.40707204 107.8937661 130.43634353 97.9465332 129.45263672 C94.49097123 129.11528403 91.0344675 128.79600096 87.57653809 128.48428345 C85.9603345 128.33263756 84.34499937 128.17149303 82.73059082 128.00180054 C60.59732385 125.68373005 38.39499894 125.92014877 16.16821289 125.94506836 C11.70684682 125.94968197 7.24575452 125.94283294 2.78442383 125.92456055 C-24.89899172 125.81214356 -52.25417153 126.45639542 -79.8059082 129.26074219 C-81.41585915 129.42441032 -81.41585915 129.42441032 -83.05833435 129.59138489 C-86.2870071 129.92528891 -89.51436516 130.26600401 -92.73902893 130.63671875 C-96.78603604 131.09359674 -100.80228708 131.36149561 -104.87207031 131.49829102 C-117.04954453 131.92854589 -128.97264447 134.03381658 -140.97387695 136.00683594 C-146.14619286 136.85609881 -151.31749663 137.60522497 -156.5168457 138.26855469 C-163.16156855 139.13313882 -169.68667376 140.32706398 -176.2434082 141.69824219 C-178.42814652 142.14562665 -180.61304225 142.59224313 -182.7980957 143.03808594 C-183.83546875 143.25062012 -184.8728418 143.4631543 -185.94165039 143.68212891 C-189.57718311 144.41654866 -193.2198101 145.09424462 -196.8684082 145.76074219 C-199.51517956 146.25631967 -202.16101151 146.75537384 -204.8059082 147.26074219 C-206.14105469 147.51525146 -206.14105469 147.51525146 -207.50317383 147.77490234 C-219.00878119 149.99471345 -230.29193997 152.40342936 -241.39111328 156.20532227 C-245.95244959 157.75754915 -250.4392301 158.83116526 -255.1730957 159.72241211 C-259.88325797 160.68549703 -264.49200297 162.02354803 -269.1184082 163.32324219 C-271.0307318 163.8573607 -272.94347885 164.38996594 -274.85668945 164.92089844 C-275.6885376 165.15429932 -276.52038574 165.3877002 -277.37744141 165.62817383 C-292.92479257 169.67795636 -309.29592044 167.39773704 -323.2434082 159.51074219 C-337.74689194 150.81674315 -348.99303248 137.02417339 -353.41552734 120.44604492 C-356.58199526 102.72055756 -354.82828113 85.15807261 -344.7355957 70.19042969 C-342.86324962 67.74854868 -340.9208616 65.49294247 -338.8059082 63.26074219 C-338.0015332 62.37386719 -337.1971582 61.48699219 -336.3684082 60.57324219 C-325.04609723 50.35554692 -313.1421179 44.95674114 -298.54467773 41.00732422 C-295.40602052 40.15173376 -292.27610087 39.26733422 -289.14575195 38.38183594 C-277.22478709 35.02690133 -265.28107931 31.79704671 -253.2434082 28.88574219 C-252.26436523 28.64734619 -251.28532227 28.4089502 -250.27661133 28.16333008 C-244.40482983 26.77034148 -238.53347999 25.69290452 -232.57568359 24.73876953 C-228.915647 24.10709464 -225.39506678 23.21785114 -221.8059082 22.26074219 C-216.21061886 20.80939753 -210.64481859 19.63410751 -204.9309082 18.75683594 C-201.20789538 18.16580765 -197.50829222 17.46711809 -193.8059082 16.76074219 C-184.69874843 15.04031069 -175.62435256 13.45914878 -166.41918945 12.35839844 C-159.59655178 11.52458685 -152.82305662 10.50045447 -146.03662109 9.40844727 C-131.94727574 7.142732 -117.98138661 5.54412054 -103.7277832 4.65527344 C-99.56814477 4.39578873 -95.44498836 4.04427245 -91.30947876 3.53004456 C-60.97174749 -0.19873672 -30.51421957 -0.05712344 0 0 Z " fill="#FEFEFE" transform="translate(655.805908203125,698.7392578125)"/>
<path d="M0 0 C2.02367169 -0.00322707 4.04734316 -0.00659213 6.0710144 -0.01008606 C10.30874163 -0.01604708 14.54644857 -0.0179296 18.78417969 -0.01733398 C23.05017405 -0.01725348 27.31605931 -0.02407767 31.58203125 -0.0378418 C69.9390295 -0.15978548 108.07453332 0.81808528 146.13256836 5.98974609 C155.03507892 7.1930533 163.95850938 8.16554846 172.89526367 9.07788086 C178.29300826 9.65001823 183.49848833 10.3921764 188.77539062 11.65698242 C193.69244538 12.72989689 198.7006593 13.32694678 203.6796875 14.04296875 C212.43089321 15.34100913 220.91257578 16.92764409 229.44921875 19.23046875 C233.42229038 20.24595032 237.39451465 21.0140313 241.4296875 21.73046875 C246.8108697 22.68908089 252.05845533 23.8503491 257.296875 25.421875 C259.80254408 26.08473206 262.27542791 26.59206401 264.8203125 27.07421875 C269.99507961 28.08759066 274.96397046 29.5316919 279.9921875 31.10546875 C285.34276782 32.74757049 290.66989032 34.37210176 296.1171875 35.66796875 C311.02374983 39.2581408 325.62327424 44.19806581 340.1171875 49.16796875 C340.81376465 49.40483398 341.5103418 49.64169922 342.22802734 49.88574219 C353.20491459 53.62768785 363.97190025 57.82312349 374.71240234 62.19433594 C377.26067824 63.22606429 379.81564515 64.2400882 382.37109375 65.25390625 C386.6787916 66.97464084 390.88563708 68.85698944 395.0859375 70.82421875 C397.62279427 71.94880474 400.16518269 72.98731563 402.74609375 74.00390625 C419.37896193 80.6125426 435.40510427 88.62689931 451.1171875 97.16796875 C452.1484375 97.72097656 453.1796875 98.27398438 454.2421875 98.84375 C460.44975845 102.19114655 466.5592923 105.70134266 472.66015625 109.23828125 C475.06799741 110.58231914 477.44606406 111.83882226 479.91796875 113.046875 C484.79127647 115.45630858 489.44962864 118.19761358 494.1171875 120.98046875 C494.96796875 121.47611328 495.81875 121.97175781 496.6953125 122.48242188 C509.4721928 130.09563966 519.17484649 140.16550578 523.49609375 154.76171875 C525.38575776 165.12515913 525.34236941 176.40693625 521.1171875 186.16796875 C520.81167969 186.95945312 520.50617187 187.7509375 520.19140625 188.56640625 C514.96912731 200.60613297 505.01647205 209.90638034 493.1171875 215.16796875 C486.76065117 217.57756485 479.89851809 217.40464718 473.1796875 217.54296875 C472.35726562 217.56931396 471.53484375 217.59565918 470.6875 217.62280273 C459.09396396 217.65142027 449.86577017 212.20213582 440.1796875 206.35546875 C439.18517578 205.76443359 438.19066406 205.17339844 437.16601562 204.56445312 C435.1590581 203.37172464 433.15368004 202.17633437 431.14990234 200.97827148 C419.93816039 194.27646045 419.93816039 194.27646045 408.3671875 188.23046875 C406.9881924 187.55096153 405.60928864 186.87126892 404.23046875 186.19140625 C403.20107178 185.68625488 403.20107178 185.68625488 402.15087891 185.17089844 C400.2110012 184.21423366 398.27808197 183.24510644 396.34765625 182.26953125 C374.03812368 170.83122159 374.03812368 170.83122159 350.92578125 161.19921875 C348.07077855 160.15092847 345.28800328 158.98953188 342.4921875 157.79296875 C335.00824572 154.64853772 327.3841848 151.90119087 319.75585938 149.13134766 C317.03363748 148.13746464 314.31728801 147.12867614 311.6015625 146.1171875 C301.39113574 142.32937668 291.19220299 138.78479394 280.69482422 135.88232422 C277.62538873 135.03167369 274.5610515 134.16351823 271.49609375 133.296875 C253.3353286 128.19350718 235.10610287 123.29829671 216.58520508 119.67285156 C213.19910135 118.9801557 209.8445529 118.17045355 206.48339844 117.36669922 C196.59949322 115.0191366 186.76822515 113.2377336 176.6953125 111.94140625 C172.90454779 111.44684977 169.14834307 110.82781369 165.38432312 110.16052246 C153.38531351 108.05638268 141.31707762 106.72034632 129.20678711 105.43310547 C125.58396232 105.04609604 121.96293692 104.64461829 118.34179688 104.2421875 C115.95322015 103.98479254 113.5645508 103.72825547 111.17578125 103.47265625 C110.13634872 103.35598602 109.0969162 103.2393158 108.02598572 103.11911011 C88.22023587 101.05924371 68.21811561 100.99550788 48.32421875 100.9296875 C47.24614141 100.92561197 46.16806408 100.92153645 45.05731773 100.91733742 C39.33728625 100.89670768 33.61727702 100.8823154 27.8972168 100.87280273 C23.28965735 100.86401799 18.68240685 100.84328809 14.07495117 100.8112793 C-15.41812274 100.61113795 -44.45181637 101.57784863 -73.79324341 104.64199829 C-79.93866777 105.28351793 -86.08992769 105.86042241 -92.24179745 106.4362545 C-110.43650631 108.14717513 -128.42090044 110.62463984 -146.44628906 113.61279297 C-151.41498662 114.4154939 -156.39663122 115.10902557 -161.3828125 115.79296875 C-169.94456907 116.98419123 -178.39975908 118.50786301 -186.8828125 120.16796875 C-188.82854962 120.52691017 -190.77429133 120.88583194 -192.72045898 121.24243164 C-200.21121885 122.61945722 -207.65836501 124.16574349 -215.10571289 125.75976562 C-220.19162029 126.83908005 -225.27424875 127.74439649 -230.4140625 128.53125 C-233.36255223 129.07247052 -236.24840494 129.70769949 -239.1640625 130.3984375 C-257.26557587 134.66089177 -274.03410527 137.34201096 -291.1328125 127.98046875 C-300.14211939 122.35847307 -306.07309401 115.60241656 -310.8828125 106.16796875 C-311.29789062 105.40613281 -311.71296875 104.64429688 -312.140625 103.859375 C-316.77542806 93.73087182 -316.56528927 80.0840222 -313.96484375 69.39453125 C-312.80277029 66.46866343 -311.50367792 63.86372387 -309.8828125 61.16796875 C-309.41359375 60.35328125 -308.944375 59.53859375 -308.4609375 58.69921875 C-299.01493691 43.46373392 -284.71944238 37.20076487 -267.8828125 33.16796875 C-262.90182471 32.05352505 -257.90039035 31.10158771 -252.8828125 30.16796875 C-250.78527041 29.7490741 -248.68969659 29.32106361 -246.59399414 28.89306641 C-219.1286379 23.30757333 -191.608602 18.27430597 -163.8828125 14.16796875 C-162.58843262 13.9757373 -161.29405273 13.78350586 -159.96044922 13.58544922 C-149.92388464 12.0966397 -149.92388464 12.0966397 -145.29248047 11.4230957 C-144.25623535 11.27187256 -143.21999023 11.12064941 -142.15234375 10.96484375 C-141.25104736 10.83432617 -140.34975098 10.70380859 -139.42114258 10.56933594 C-137.76255513 10.30707588 -136.10964664 10.00500785 -134.46655273 9.65869141 C-131.40604816 9.07741821 -128.37691274 8.7917887 -125.2734375 8.51953125 C-123.32304565 8.34429932 -123.32304565 8.34429932 -121.33325195 8.16552734 C-120.64800446 8.1048407 -119.96275696 8.04415405 -119.25674438 7.98162842 C-107.24108966 6.91432986 -95.25854235 5.70597655 -83.29199219 4.17041016 C-71.70013408 2.70270196 -60.11959628 2.03215785 -48.4453125 1.66796875 C-41.86818762 1.46207615 -35.31951536 1.22035154 -28.76196289 0.66088867 C-19.17983661 -0.03342323 -9.60308583 0.00365784 0 0 Z " fill="#FDFEFE" transform="translate(649.8828125,959.83203125)"/>
</svg>
